<svg xmlns="http://www.w3.org/2000/svg" viewBox="0 0 720 320" role="img" aria-labelledby="ptitle pdesc">
  <title id="ptitle">AskDB package dependency direction</title>
  <desc id="pdesc">Core and introspect sit above integration packages; product surfaces compose them.</desc>
  <defs>
    <marker id="a" markerWidth="8" markerHeight="8" refX="7" refY="4" orient="auto">
      <path d="M0,0 L8,4 L0,8 Z" fill="#64748b"/>
    </marker>
  </defs>
  <text x="360" y="22" text-anchor="middle" font-family="ui-sans-serif,system-ui,sans-serif" font-size="12" font-weight="700" fill="#334155">Depends on (arrows point up)</text>
  <rect x="240" y="36" width="200" height="44" rx="8" fill="#fef2f2" stroke="#a10b2c" stroke-width="2"/>
  <text x="340" y="64" text-anchor="middle" font-family="ui-sans-serif,system-ui,sans-serif" font-size="15" font-weight="700" fill="#5b0719">@askdb/core</text>
  <line x1="280" y1="118" x2="300" y2="80" stroke="#64748b" stroke-width="2" marker-end="url(#a)"/>
  <line x1="340" y1="118" x2="340" y2="80" stroke="#64748b" stroke-width="2" marker-end="url(#a)"/>
  <line x1="400" y1="118" x2="380" y2="80" stroke="#64748b" stroke-width="2" marker-end="url(#a)"/>
  <rect x="200" y="118" width="100" height="40" rx="6" fill="#f8fafc" stroke="#475569" stroke-width="1.5"/>
  <text x="250" y="143" text-anchor="middle" font-family="ui-sans-serif,system-ui,sans-serif" font-size="12" font-weight="600" fill="#0f172a">enrich</text>
  <rect x="290" y="118" width="100" height="40" rx="6" fill="#f8fafc" stroke="#475569" stroke-width="1.5"/>
  <text x="340" y="143" text-anchor="middle" font-family="ui-sans-serif,system-ui,sans-serif" font-size="12" font-weight="600" fill="#0f172a">rag</text>
  <rect x="380" y="118" width="100" height="40" rx="6" fill="#f8fafc" stroke="#475569" stroke-width="1.5"/>
  <text x="430" y="143" text-anchor="middle" font-family="ui-sans-serif,system-ui,sans-serif" font-size="12" font-weight="600" fill="#0f172a">postgres</text>
  <line x1="230" y1="188" x2="250" y2="158" stroke="#64748b" stroke-width="2" marker-end="url(#a)"/>
  <line x1="340" y1="188" x2="340" y2="158" stroke="#64748b" stroke-width="2" marker-end="url(#a)"/>
  <line x1="450" y1="188" x2="430" y2="158" stroke="#64748b" stroke-width="2" marker-end="url(#a)"/>
  <rect x="170" y="188" width="120" height="38" rx="6" fill="#ecfdf5" stroke="#047857" stroke-width="1.5"/>
  <text x="230" y="212" text-anchor="middle" font-family="ui-sans-serif,system-ui,sans-serif" font-size="11" font-weight="600" fill="#064e3b">tui &#183; studio</text>
  <rect x="390" y="188" width="120" height="38" rx="6" fill="#ecfdf5" stroke="#047857" stroke-width="1.5"/>
  <text x="450" y="212" text-anchor="middle" font-family="ui-sans-serif,system-ui,sans-serif" font-size="11" font-weight="600" fill="#064e3b">cli &#183; http-api</text>
  <text x="230" y="248" text-anchor="middle" font-family="ui-sans-serif,system-ui,sans-serif" font-size="10" fill="#64748b">authoring on Schema v2</text>
  <text x="450" y="248" text-anchor="middle" font-family="ui-sans-serif,system-ui,sans-serif" font-size="10" fill="#64748b">not DB connectors by themselves</text>
  <rect x="520" y="36" width="180" height="44" rx="8" fill="#fef2f2" stroke="#a10b2c" stroke-width="2"/>
  <text x="610" y="64" text-anchor="middle" font-family="ui-sans-serif,system-ui,sans-serif" font-size="14" font-weight="700" fill="#5b0719">@askdb/introspect</text>
  <line x1="570" y1="118" x2="580" y2="80" stroke="#64748b" stroke-width="2" marker-end="url(#a)"/>
  <line x1="650" y1="118" x2="640" y2="80" stroke="#64748b" stroke-width="2" marker-end="url(#a)"/>
  <rect x="520" y="118" width="88" height="40" rx="6" fill="#f8fafc" stroke="#475569" stroke-width="1.5"/>
  <text x="564" y="143" text-anchor="middle" font-family="ui-sans-serif,system-ui,sans-serif" font-size="11" font-weight="600" fill="#0f172a">postgres</text>
  <rect x="618" y="118" width="82" height="40" rx="6" fill="#f8fafc" stroke="#475569" stroke-width="1.5"/>
  <text x="659" y="143" text-anchor="middle" font-family="ui-sans-serif,system-ui,sans-serif" font-size="11" font-weight="600" fill="#0f172a">prisma</text>
  <text x="610" y="185" text-anchor="middle" font-family="ui-sans-serif,system-ui,sans-serif" font-size="10" fill="#64748b">connectors feed introspection</text>
</svg>
