<?xml version="1.0" encoding="UTF-8" standalone="no"?>
<svg
   width="800"
   height="1100"
   viewBox="0 0 800 1100"
   version="1.1"
   id="svg49"
   sodipodi:docname="askdb-hero-visual-long.svg"
   xml:space="preserve"
   inkscape:version="1.4.3 (0d15f750, 2025-12-25)"
   xmlns:inkscape="http://www.inkscape.org/namespaces/inkscape"
   xmlns:sodipodi="http://sodipodi.sourceforge.net/DTD/sodipodi-0.dtd"
   xmlns="http://www.w3.org/2000/svg"
   xmlns:svg="http://www.w3.org/2000/svg"
   xmlns:rdf="http://www.w3.org/1999/02/22-rdf-syntax-ns#"
   xmlns:cc="http://creativecommons.org/ns#"
   xmlns:dc="http://purl.org/dc/elements/1.1/"><defs
     id="defs49"><linearGradient
       id="linearGradient51"
       inkscape:swatch="gradient"><stop
         style="stop-color:#000000;stop-opacity:1;"
         offset="0"
         id="stop51" /><stop
         style="stop-color:#000000;stop-opacity:0;"
         offset="1"
         id="stop52" /></linearGradient></defs><sodipodi:namedview
     id="namedview49"
     pagecolor="#ffffff"
     bordercolor="#000000"
     borderopacity="0.25"
     inkscape:showpageshadow="2"
     inkscape:pageopacity="0.0"
     inkscape:pagecheckerboard="false"
     inkscape:deskcolor="#a1a4a4"
     inkscape:zoom="0.6588092"
     inkscape:cx="119.91332"
     inkscape:cy="655.72855"
     inkscape:window-width="1337"
     inkscape:window-height="1101"
     inkscape:window-x="463"
     inkscape:window-y="40"
     inkscape:window-maximized="0"
     inkscape:current-layer="svg49"
     showguides="false" /><title
     id="title1">AskDB hero visual, plain Inkscape version</title><desc
     id="desc1">A simplified AskDB hero visual using only direct solid fills, strokes, and text for easier editing in Inkscape.</desc><!-- Background --><!-- Left question card shadow --><!-- Left question card --><!-- Connector question to AskDB --><!-- Center glow --><!-- Center AskDB logo-inspired mark --><!-- Connector AskDB to SQL --><!-- Bottom source connections --><!-- Source card shadows --><!-- Source card 1 --><!-- Source card 2 --><!-- Source card 3 --><!-- SQL output shadow --><!-- SQL output card --><!-- Bottom chips --><ellipse
     cx="400.48602"
     cy="549.06165"
     rx="398.30157"
     ry="548.98053"
     fill="#edf2f7"
     opacity="0.35"
     id="ellipse1"
     style="stroke-width:1.14254" /><circle
     cx="397.76657"
     cy="455.34677"
     r="124.35048"
     fill="#a10b2c"
     opacity="0.06"
     id="circle7-9"
     style="stroke-width:1.03625" /><circle
     cx="397.76657"
     cy="455.34677"
     r="97.524605"
     fill="#a10b2c"
     opacity="0.035"
     id="circle8-4"
     style="stroke-width:1.25031" /><g
     id="g71-5"
     transform="matrix(1.2342571,0,0,1.2342571,-539.51341,9.9488127)"><g
       id="g49-9"
       inkscape:label="AskDB Logo"
       transform="matrix(0.34051081,0,0,0.34051081,447.36541,283.96273)"><g
         id="g141-3"
         inkscape:label="icon"
         transform="matrix(2.674141,0,0,2.674141,797.77077,37.456396)"
         inkscape:export-filename="light-stacked-icon.png"
         inkscape:export-xdpi="200"
         inkscape:export-ydpi="200"><path
           d="m 15.522666,79.789708 c -0.244323,-0.257354 -0.407205,-0.612437 -0.449554,-0.98055 -0.136821,-0.96752 -0.08144,-34.312745 0.04235,-36.66802 0.205231,-3.528026 0.843729,-6.046184 2.260804,-9.039957 2.505126,-5.270865 6.808472,-9.082306 12.294341,-10.906585 2.954681,-0.993581 3.062183,-0.993581 12.19987,-1.048961 l 8.170166,-0.05538 0.599406,0.312734 c 0.85676,0.436524 1.130402,0.86979 1.130402,1.755869 -0.01303,0.804637 -0.244323,1.224873 -0.98055,1.716777 l -0.449555,0.312734 H 42.32003 c -7.51538,0 -8.114786,0.01303 -9.382009,0.273642 -5.091695,1.03593 -9.202839,4.140463 -11.737285,8.851013 -0.762288,1.404044 -1.224873,2.612629 -1.700489,4.410848 l -0.355083,1.374725 -0.08144,16.747538 c -0.04235,9.219127 -0.05538,16.789887 -0.02606,16.842009 0.01303,0.05538 0.843729,-0.557056 1.83731,-1.361694 0.993581,-0.804638 2.068603,-1.661398 2.397625,-1.905721 l 0.612436,-0.436524 h 12.975189 c 8.320018,0 13.454062,-0.05538 14.297791,-0.149851 6.971354,-0.775319 13.05663,-6.714001 14.336883,-13.96877 0.12379,-0.723196 0.273642,-7.828114 0.273642,-13.261861 0,-1.566925 0.02606,-1.755869 0.312734,-2.179362 0.355083,-0.517965 1.061991,-0.925171 1.635336,-0.938201 0.573345,0 1.319345,0.394175 1.606017,0.86979 0.257354,0.407206 0.257354,0.736227 0.218263,8.114787 -0.05538,8.44055 -0.04235,8.306987 -0.96752,11.082498 C 66.05521,67.029524 59.940616,72.378572 52.451297,73.671856 50.9821,73.916179 50.151402,73.92921 37.801681,73.92921 H 24.702702 l -2.097922,1.661397 c -1.156463,0.91214 -2.81786,2.247773 -3.677878,2.967712 -0.85676,0.723197 -1.700489,1.387756 -1.866629,1.469197 -0.530995,0.286672 -1.130402,0.205231 -1.537607,-0.244323 z"
           id="path121-9"
           inkscape:label="chat-icon"
           style="fill:#ac1727;stroke-width:0.325764" /><g
           id="g139-6"
           inkscape:label="stars"
           style="fill:#ac1727"
           transform="matrix(0.32576421,0,0,0.32576421,1.6e-6,2.800006e-4)"><path
             d="m 212.83,104.74 c 0,3.1 -2.47,5.56 -5.56,5.56 -3.05,0 -5.56,-2.46 -5.56,-5.56 0,-3.05 2.51,-5.56 5.56,-5.56 3.09,0 5.56,2.51 5.56,5.56 z m -9.36,3.93"
             id="path124-6" /><path
             d="m 174.84,101.06 c -0.21,-0.29 -0.71,-1.34 -1.13,-2.26 -0.59,-1.34 -1.25,-2.05 -2.8,-2.88 -2.97,-1.59 -2.8,-3.18 0.54,-5.1 0.84,-0.5 1.63,-1.55 2.26,-2.93 1.3,-2.88 2.38,-3.01 3.55,-0.33 0.92,2.09 2.47,3.68 4.22,4.43 1.88,0.75 1.46,2.34 -0.92,3.72 -1.3,0.75 -2.17,1.63 -2.8,2.93 -1.04,2.09 -1.67,2.93 -2.17,2.93 -0.21,0 -0.54,-0.25 -0.75,-0.5 z"
             id="path125-4" /><path
             d="m 225.87,97.05 c -0.25,-0.17 -0.79,-1.63 -1.17,-3.3 -1.04,-4.26 -2.67,-6.6 -5.39,-7.86 -1.17,-0.54 -3.05,-1.13 -4.14,-1.25 -1.96,-0.29 -2.88,-1.17 -2.01,-2.05 0.25,-0.25 1.55,-0.67 2.97,-0.96 3.22,-0.67 5.22,-1.88 6.69,-4.22 1.04,-1.63 1.38,-2.8 2.3,-7.52 0.17,-0.75 0.42,-0.96 1.3,-0.84 1,0.13 1.21,0.38 1.59,2.42 0.75,3.59 1.46,5.39 2.76,6.9 1.34,1.5 4.47,3.01 7.19,3.47 1.5,0.25 1.76,0.46 1.88,1.42 0.13,1 -0.04,1.09 -1.88,1.38 -2.47,0.33 -5.98,1.88 -7.15,3.13 -1.3,1.42 -2.17,3.47 -2.67,6.39 -0.38,2.26 -0.84,3.22 -1.59,3.22 -0.13,0 -0.42,-0.17 -0.67,-0.33 z"
             id="path126-0" /><path
             d="m 189.17,85.6 c -0.13,-0.29 -0.46,-1.88 -0.84,-3.55 -0.75,-3.51 -2.26,-6.73 -3.89,-8.32 -1.59,-1.5 -5.73,-3.43 -8.02,-3.76 -3.22,-0.42 -3.43,-0.54 -3.3,-1.76 0.13,-1 0.33,-1.17 2.3,-1.42 7.65,-1.09 11.87,-5.43 13.21,-13.5 0.5,-3.3 0.54,-3.34 1.76,-3.34 1.09,0 1.25,0.17 1.55,1.67 1.3,6.39 2.3,8.74 4.6,10.95 1.76,1.71 5.43,3.39 8.69,3.97 2.34,0.46 2.51,0.54 2.51,1.63 0,1.09 -0.17,1.17 -2.38,1.63 -8.07,1.67 -11.37,4.89 -13.04,12.71 -0.67,3.13 -0.79,3.39 -1.84,3.51 -0.67,0.08 -1.21,-0.08 -1.3,-0.42 z"
             id="path127-8" /><path
             d="m 212.12,50.91 c -0.71,-4.68 -2.59,-7.94 -5.35,-9.36 -0.67,-0.38 -2.38,-0.88 -3.8,-1.17 -2.26,-0.46 -2.55,-0.67 -2.55,-1.5 0,-0.88 0.29,-1.04 2.67,-1.5 5.06,-1.04 7.65,-3.89 8.57,-9.49 0.46,-2.8 0.59,-3.01 1.63,-3.13 0.63,-0.08 1.13,0 1.13,0.21 0,0.17 0.29,1.59 0.59,3.09 1.21,5.64 3.3,7.9 8.53,9.15 2.26,0.54 2.84,0.84 2.93,1.55 0.13,0.96 0.08,1 -3.68,1.8 -5.22,1.17 -6.69,3.18 -8.19,11.2 -0.13,0.63 -0.46,0.92 -1.17,0.92 -0.88,0 -1.04,-0.25 -1.3,-1.76 z"
             id="path129-2" /><path
             d="m 230.01,53.83 c -0.25,-0.29 -0.54,-1.09 -0.71,-1.8 -0.42,-1.67 -1.3,-2.59 -3.01,-3.13 -1.92,-0.67 -1.92,-1.88 0,-2.26 1.63,-0.29 2.67,-1.34 3.13,-3.01 0.46,-1.76 1.96,-1.88 2.34,-0.25 0.29,1.46 1.67,2.8 3.26,3.18 1.76,0.42 1.46,1.67 -0.54,2.3 -1.71,0.5 -2.93,2.05 -2.93,3.72 0,1.13 -1,1.92 -1.55,1.25 z"
             id="path128-0" /></g><path
           d="m 39.498912,62.892318 c -2.641948,-0.231292 -5.296926,-0.92517 -7.147267,-1.85034 -1.143432,-0.573345 -2.342244,-1.687459 -2.886271,-2.668009 L 29.0712,57.66706 v -9.052987 -9.052987 l 0.325764,-0.667817 c 1.280253,-2.573537 5.867013,-4.466227 11.330079,-4.671459 2.423686,-0.09447 4.492289,0.107502 6.727031,0.667817 2.668009,0.667817 5.121013,1.987162 5.964743,3.212035 0.830698,1.185782 0.788349,0.762288 0.817668,10.49938 l 0.02606,8.932455 -0.381144,0.775319 c -1.198812,2.436716 -4.997223,4.140463 -10.238769,4.590018 -1.82428,0.162882 -2.286865,0.162882 -4.140463,0 z m 4.7529,-2.436716 c 3.635528,-0.436524 6.753092,-1.687459 7.420909,-3.010061 0.162882,-0.299703 0.205231,-0.938201 0.205231,-2.830891 v -2.466035 l -0.843729,0.475615 c -0.475616,0.257354 -1.417075,0.654787 -2.110952,0.869791 -5.270865,1.716777 -12.105398,1.374725 -16.473896,-0.817668 l -0.993581,-0.504935 v 2.560507 2.547476 l 0.573345,0.654786 c 1.661397,1.87966 7.502349,3.078472 12.225931,2.518157 z m 1.974131,-8.577372 c 2.466035,-0.530995 4.547668,-1.374725 5.296926,-2.150043 0.338795,-0.368114 0.338795,-0.368114 0.355083,-2.954682 0,-1.430105 0.01303,-2.628917 0,-2.681039 0,-0.05538 -0.325764,0.09447 -0.706908,0.355083 -4.221904,2.668009 -13.698385,2.778769 -18.653259,0.192201 -0.475616,-0.244323 -0.899109,-0.462585 -0.954489,-0.488647 -0.06841,-0.02606 -0.107502,1.130402 -0.107502,2.573538 v 2.612629 l 0.530995,0.504934 c 0.89911,0.85676 3.609468,1.82428 6.277477,2.231485 1.918751,0.299703 6.153686,0.205231 7.964935,-0.192201 z M 44.08893,44.118527 c 2.518157,-0.273642 4.479258,-0.788349 6.059214,-1.606018 1.237904,-0.638497 1.729808,-1.211842 1.729808,-2.01648 0,-0.86979 -0.736227,-1.635336 -2.368306,-2.449747 -2.329214,-1.143432 -5.283895,-1.648367 -8.727223,-1.498515 -4.671459,0.192201 -8.508961,1.619048 -9.271249,3.430297 -0.123791,0.273642 -0.175913,0.638498 -0.136821,0.817668 0.557056,2.192393 7.134236,3.909171 12.717834,3.322795 z"
           id="path130-6"
           style="fill:#171717;stroke-width:0.325764"
           inkscape:label="database" /></g><g
         id="g140-0"
         inkscape:label="AskDB"
         transform="matrix(2.5996012,0,0,2.5996012,556.13121,192.96949)"><g
           id="g138-7"
           inkscape:label="DB"
           style="fill:#ac1727"
           transform="matrix(0.32576421,0,0,0.32576421,2.8333333e-6,2.7999271e-4)"><path
             d="M 465.2,141.06 V 99.43 l 18.1,0.17 c 17.01,0.13 18.27,0.21 21.61,1.09 14.09,3.68 23.49,14.55 26.37,30.55 0.92,4.89 0.71,16.01 -0.33,20.9 -1.04,4.81 -3.22,10.78 -5.18,14.09 -3.09,5.27 -10.07,11.03 -16.3,13.54 -5.73,2.26 -8.53,2.55 -27,2.76 l -17.26,0.21 v -41.67 z m 32.89,26.08 c 4.22,-0.54 8.48,-2.51 11.08,-5.14 2.84,-2.8 5.18,-7.77 6.02,-12.79 0.79,-4.68 0.59,-14.34 -0.42,-18.89 -1.34,-6.1 -4.89,-11.2 -9.36,-13.46 -3.97,-2.01 -6.23,-2.34 -15.63,-2.34 h -8.69 v 26.25 c 0,14.46 0.13,26.42 0.29,26.54 0.42,0.46 13.12,0.33 16.72,-0.17 z"
             id="path122-2" /><path
             d="m 542.48,181.15 c -0.04,-0.92 -0.04,-16.09 0,-33.81 0.04,-17.68 0.04,-35.69 0.04,-40 v -7.86 h 18.52 c 16.59,0 18.89,0.08 22.36,0.79 5.02,1.04 8.69,2.8 11.49,5.43 3.85,3.64 5.6,7.77 6.02,14.04 0.54,8.4 -2.59,14.09 -9.7,17.6 -2.93,1.46 -3.64,2.26 -1.92,2.26 0.42,0 2.3,0.75 4.1,1.67 6.85,3.43 10.57,9.74 10.57,18.01 0,11.79 -6.44,19.56 -18.39,22.15 -3.59,0.79 -5.73,0.92 -23.49,1.09 l -19.56,0.21 -0.04,-1.59 z m 37.66,-13.5 c 0.84,-0.25 2.34,-1 3.34,-1.63 5.64,-3.59 5.94,-13 0.5,-17.09 -3.05,-2.3 -4.93,-2.63 -15.63,-2.63 h -9.53 v 11.12 11.16 l 9.95,-0.25 c 5.43,-0.13 10.57,-0.42 11.37,-0.67 z m -4.64,-34.32 c 4.1,-0.54 6.35,-1.88 7.98,-4.72 1.04,-1.84 1.25,-2.59 1.25,-5.1 -0.04,-4.72 -1.55,-7.19 -5.64,-9.07 -1.92,-0.88 -2.76,-0.96 -11.16,-1.09 l -9.11,-0.17 v 9.99 c 0,5.52 0.13,10.16 0.29,10.28 0.42,0.42 12.87,0.33 16.38,-0.13 z"
             id="path123-9" /></g><g
           id="g137-8"
           inkscape:label="Ask"
           style="fill:#171717"
           transform="matrix(0.32576421,0,0,0.32576421,1.6e-6,2.800006e-4)"><path
             d="m 359.87,183.66 c -8.65,-1.67 -14.04,-4.85 -17.64,-10.37 -1.8,-2.8 -3.55,-7.77 -2.84,-8.19 0.21,-0.13 2.93,-0.59 5.94,-1 3.05,-0.38 6.06,-0.79 6.65,-0.92 0.96,-0.17 1.17,0 1.84,1.76 1.5,3.97 4.85,6.23 9.95,6.73 4.97,0.46 9.03,-1.04 11.08,-4.05 0.79,-1.17 0.96,-1.84 0.79,-3.47 -0.33,-3.68 -1.8,-4.51 -13.12,-7.36 -11.7,-2.93 -15.88,-5.06 -19.02,-9.66 -4.72,-6.9 -3.05,-17.72 3.51,-23.11 2.55,-2.09 7.48,-4.35 11.2,-5.14 4.93,-1.04 12.16,-0.63 16.72,0.96 4.14,1.42 7.73,3.64 9.86,6.14 1.71,1.96 3.72,6.02 4.14,8.23 l 0.29,1.55 -2.88,0.46 c -10.11,1.63 -10.2,1.63 -10.41,0.92 -0.5,-1.76 -1.88,-3.72 -3.43,-4.89 -4.31,-3.34 -13.33,-2.63 -16.13,1.21 -1.13,1.5 -1.17,4.68 -0.13,6.27 1.09,1.71 3.13,2.51 11.87,4.85 4.43,1.17 9.07,2.51 10.37,3.01 7.15,2.67 10.66,6.48 11.95,13.04 0.67,3.18 0,7.4 -1.76,11.16 -2.34,5.1 -7.69,9.24 -14.38,11.08 -2.47,0.67 -12.2,1.21 -14.42,0.79 z"
             id="path131-1" /><path
             d="m 260.81,182.23 c 0,-0.21 1.8,-5.52 3.97,-11.79 8.53,-24.41 21.73,-62.53 23.74,-68.46 l 0.92,-2.72 h 8.78 8.78 l 1.55,4.6 c 9.24,27.29 18.64,55.05 22.24,65.58 2.42,7.11 4.43,12.96 4.43,13.04 0,0.08 -3.64,0.17 -8.11,0.17 H 319 l -2.38,-7.4 c -1.3,-4.1 -2.72,-8.48 -3.09,-9.74 l -0.75,-2.3 -14.8,-0.13 -14.8,-0.08 -3.26,9.82 -3.3,9.82 h -7.9 c -4.76,0 -7.9,-0.17 -7.9,-0.42 z m 47.44,-33.52 c -0.13,-0.54 -1.92,-6.23 -3.97,-12.66 -2.05,-6.44 -4.22,-13.46 -4.85,-15.55 -0.67,-2.13 -1.3,-3.89 -1.42,-3.89 -0.17,0 -0.96,2.34 -1.84,5.14 -0.84,2.84 -3.13,10.24 -5.06,16.38 -1.96,6.19 -3.55,11.29 -3.55,11.37 0,0.08 4.72,0.13 10.49,0.13 h 10.45 z"
             id="path132-1" /><path
             d="m 400,140.86 v -41.8 h 7.31 7.31 l 0.08,23.03 0.13,23.07 10.41,-12.2 c 5.73,-6.69 10.62,-12.46 10.87,-12.79 0.38,-0.54 1.8,-0.63 9.2,-0.54 l 8.78,0.13 -5.22,6.1 c -2.84,3.34 -7.52,8.78 -10.41,12.08 -2.88,3.3 -5.73,6.56 -6.31,7.27 l -1.13,1.3 11.87,17.76 c 6.52,9.78 11.87,17.89 11.87,18.06 0,0.21 -3.89,0.33 -8.65,0.33 h -8.69 l -8.15,-13 c -4.47,-7.15 -8.32,-13.08 -8.53,-13.21 -0.17,-0.13 -1.63,1.04 -3.22,2.63 l -2.88,2.84 v 10.37 10.37 h -7.31 -7.31 v -41.8 z"
             id="path133-6" /></g></g></g><text
       xml:space="preserve"
       style="font-size:21.3333px;writing-mode:lr-tb;direction:ltr;display:inline;fill:#ac1727;fill-opacity:1;stroke-width:1.23123"
       x="725.45905"
       y="426.45874"
       id="text135-1"
       inkscape:transform-center-x="-0.15710994"
       inkscape:transform-center-y="-0.1570208"><tspan
         sodipodi:role="line"
         id="tspan135-1"
         style="font-style:normal;font-variant:normal;font-weight:500;font-stretch:normal;font-size:21.3333px;font-family:inter;-inkscape-font-specification:'inter Medium';fill:#ac1727;fill-opacity:1;stroke-width:1.23123"
         x="725.45905"
         y="426.45874">context</tspan></text></g><g
     id="g9"
     transform="translate(146.51249,-45.617225)"><rect
       x="22.89328"
       y="90.921371"
       width="450.77048"
       height="132.64052"
       rx="16.580065"
       fill="#071525"
       id="rect3"
       style="stroke-width:1.03625" /><circle
       cx="78.850998"
       cy="157.24162"
       r="30.051367"
       fill="#8b1230"
       id="circle3"
       style="stroke-width:1.03625" /><text
       x="78.850998"
       y="169.67668"
       text-anchor="middle"
       font-family="Arial, Helvetica, sans-serif"
       font-size="39.3777px"
       font-weight="700"
       fill="#ffffff"
       id="text3"
       style="stroke-width:1.03625">?</text><text
       x="132.73621"
       y="148.9516"
       font-family="Arial, Helvetica, sans-serif"
       font-size="24.8701px"
       font-weight="500"
       fill="#ffffff"
       id="text4"
       style="stroke-width:1.03625">Which active users</text><text
       x="129.53529"
       y="179.07219"
       font-family="Arial, Helvetica, sans-serif"
       font-size="24.8701px"
       font-weight="500"
       fill="#ffffff"
       id="text5"
       style="stroke-width:1.03625">signed up in the last 30 days?</text></g><g
     id="g15"><line
       x1="394.79102"
       y1="189.20129"
       x2="394.79102"
       y2="313.7431"
       stroke="#9caac0"
       stroke-width="2.15655"
       id="line5" /><circle
       cx="184.09332"
       cy="-394.79102"
       r="7.253778"
       fill="#6f7f96"
       id="circle5"
       style="stroke-width:1.03625"
       transform="rotate(90)" /><circle
       cx="320.0813"
       cy="-394.79102"
       r="7.253778"
       fill="#f8fafc"
       stroke="#9caac0"
       stroke-width="3.10876"
       id="circle6"
       transform="rotate(90)" /></g><line
     x1="394.79102"
     y1="591.05469"
     x2="394.79102"
     y2="713.62744"
     stroke="#9caac0"
     stroke-width="2.13943"
     id="line5-2" /><circle
     cx="585.64941"
     cy="-394.79102"
     r="7.253778"
     fill="#6f7f96"
     id="circle5-7"
     style="stroke-width:1.03625"
     transform="rotate(90)" /><circle
     cx="721.60657"
     cy="-394.79102"
     r="7.253778"
     fill="#f8fafc"
     stroke="#9caac0"
     stroke-width="3.10876"
     id="circle6-1"
     transform="rotate(90)" /><g
     id="g14"
     transform="translate(-16.282691,21.772004)"><g
       id="g12"
       transform="translate(-8)"><g
         id="g67"
         transform="matrix(1.036254,0,0,1.036254,608.30668,-595.60113)"
         inkscape:label="db"><rect
           x="82"
           y="812"
           width="98"
           height="44"
           rx="22"
           fill="#f1f5f9"
           id="rect45"
           style="fill:#071525;fill-opacity:1" /><g
           id="g65"
           transform="translate(3.8125,-1.5)"><g
             id="g61"
             style="stroke:#b7c1ce;stroke-opacity:1"><ellipse
               cx="108"
               cy="829"
               rx="8"
               ry="4"
               fill="none"
               stroke="#53647a"
               stroke-width="2"
               id="ellipse45"
               style="stroke:#b7c1ce;stroke-opacity:1" /><path
               d="m 100,829 v 12 c 0,3 4,5 8,5 4,0 8,-2 8,-5 v -12"
               fill="none"
               stroke="#53647a"
               stroke-width="2"
               id="path45"
               style="stroke:#b7c1ce;stroke-opacity:1" /></g><text
             x="134"
             y="841.22656"
             font-family="Arial, Helvetica, sans-serif"
             font-size="16px"
             fill="#304055"
             id="text46"
             style="fill:#b7c1ce;fill-opacity:1;stroke:none;stroke-opacity:1">DB</text></g></g><g
         id="g62"
         transform="matrix(1.036254,0,0,1.036254,231.11022,-268.14489)"
         inkscape:label="policy"><rect
           x="446"
           y="812"
           width="114"
           height="44"
           rx="22"
           fill="#f1f5f9"
           id="rect48"
           style="fill:#071525;fill-opacity:1" /><path
           d="m 475.04224,823.68277 8.1126,3.68754 v 6.63759 c 0,5.90007 -4.42505,8.85011 -8.1126,10.32513 -3.68755,-1.47502 -8.1126,-4.42506 -8.1126,-10.32513 v -6.63759 z"
           fill="none"
           stroke="#53647a"
           stroke-width="1.47502"
           id="path48"
           style="stroke:#b7c1ce;stroke-opacity:1" /><g
           id="g59"
           style="fill:#b7c1ce;fill-opacity:1;stroke:none;stroke-opacity:1"
           transform="translate(1.0422425,-0.95703125)"><text
             x="498"
             y="839"
             font-family="Arial, Helvetica, sans-serif"
             font-size="16px"
             fill="#304055"
             id="text49"
             style="fill:#b7c1ce;fill-opacity:1;stroke:none;stroke-opacity:1">policy</text></g></g><g
         id="g66"
         transform="matrix(1.036254,0,0,1.036254,494.31874,-432.9093)"
         inkscape:label="keys"><rect
           x="192"
           y="812"
           width="94"
           height="44"
           rx="22"
           fill="#f1f5f9"
           id="rect46"
           style="fill:#071525;fill-opacity:1" /><g
           id="g64"
           transform="translate(-2.130405,-2.9570275)"><text
             x="240"
             y="841"
             font-family="Arial, Helvetica, sans-serif"
             font-size="16px"
             fill="#304055"
             id="text47"
             style="fill:#b7c1ce;fill-opacity:1;stroke:none;stroke-opacity:1">keys</text><g
             style="fill:none;fill-opacity:1;stroke:#b7c1ce;stroke-opacity:1"
             id="g55-3"
             transform="matrix(0.96378026,0,0,0.96378026,208.77116,825.39328)"><path
               d="M 15.6807,14.5869 C 19.1708,14.5869 22,11.7692 22,8.29344 22,4.81767 19.1708,2 15.6807,2 c -3.49,0 -6.3192,2.81767 -6.3192,6.29344 0,1.60994 0.7348,2.78086 0.7348,2.78086 l -7.64189,7.6106 c -0.34291,0.3415 -0.82298,1.2294 0,2.049 l 0.88175,0.8782 c 0.34289,0.2927 1.20503,0.7025 1.91044,0 l 1.02871,-1.0245 c 1.02872,1.0245 2.20439,0.4391 2.64527,-0.1464 0.7348,-1.0245 -0.14696,-2.049 -0.14696,-2.049 l 0.29392,-0.2927 c 1.41076,1.405 2.64526,0.5854 3.08616,0 0.7348,-1.0245 0,-2.049 0,-2.049 -0.2939,-0.5855 -0.8817,-0.5855 -0.147,-1.3172 l 0.8818,-0.8782 c 0.7054,0.5854 2.1554,0.7318 2.7922,0.7318 z"
               stroke="#1c274c"
               stroke-width="1.5"
               stroke-linejoin="round"
               id="path1-3"
               style="fill:none;fill-opacity:1;stroke:#b7c1ce;stroke-opacity:1" /><path
               d="m 17.8853,8.29353 c 0,1.21248 -0.9869,2.19537 -2.2043,2.19537 -1.2175,0 -2.2044,-0.98289 -2.2044,-2.19537 0,-1.21248 0.9869,-2.19539 2.2044,-2.19539 1.2174,0 2.2043,0.98291 2.2043,2.19539 z"
               stroke="#1c274c"
               stroke-width="1.5"
               id="path2-7"
               style="fill:none;fill-opacity:1;stroke:#b7c1ce;stroke-opacity:1" /></g></g></g></g><g
       id="g13"><path
         d="m 629.61512,431.32655 h 48.70394"
         fill="none"
         stroke="#9caac0"
         stroke-width="2.07251"
         id="path18" /><path
         d="m 593.34623,431.32655 h 36.26889"
         fill="none"
         stroke="#9caac0"
         stroke-width="2.07251"
         id="path16" /><path
         d="m 629.61512,431.32655 v 164.76439 q 0,0 22.79759,0 h 25.90635"
         fill="none"
         stroke="#9caac0"
         stroke-width="2.07251"
         id="path17" /><path
         d="M 629.61512,431.32655 V 268.63467 q 0,0 22.79759,0 h 25.90635"
         fill="none"
         stroke="#9caac0"
         stroke-width="2.07251"
         id="path19" /><circle
         cx="-431.32654"
         cy="629.61511"
         r="7.253778"
         fill="#f8fafc"
         stroke="#9caac0"
         stroke-width="3.10876"
         id="circle19"
         transform="rotate(-90)" /><circle
         cx="-596.09094"
         cy="678.31903"
         r="7.253778"
         fill="#9caac0"
         id="circle20"
         style="stroke-width:1.03625"
         transform="rotate(-90)" /><circle
         cx="-431.32654"
         cy="678.31903"
         r="7.253778"
         fill="#9caac0"
         id="circle21"
         style="stroke-width:1.03625"
         transform="rotate(-90)" /><circle
         cx="-268.6347"
         cy="678.31903"
         r="7.253778"
         fill="#9caac0"
         id="circle22"
         style="stroke-width:1.03625"
         transform="rotate(-90)" /></g></g><text
     xml:space="preserve"
     style="font-style:normal;font-variant:normal;font-weight:bold;font-stretch:normal;font-size:22.1067px;line-height:0;font-family:inter;-inkscape-font-specification:'inter Bold';text-align:center;writing-mode:lr-tb;direction:ltr;text-anchor:middle;fill:#000000;fill-opacity:1;fill-rule:evenodd;stroke:none;stroke-width:0.4;stroke-dasharray:none;stroke-opacity:1"
     x="547.65997"
     y="462.11182"
     id="text55"
     inkscape:label="BYO"><tspan
       sodipodi:role="line"
       id="tspan55"
       x="547.65997"
       y="462.11182"
       style="font-style:normal;font-variant:normal;font-weight:bold;font-stretch:normal;line-height:21.6px;font-family:Helvetica;-inkscape-font-specification:'Helvetica Bold';fill:#000000;fill-opacity:1;stroke:none;stroke-width:0.4;stroke-dasharray:none;stroke-opacity:1">BYO</tspan><tspan
       sodipodi:role="line"
       x="547.65997"
       y="483.71182"
       style="font-style:normal;font-variant:normal;font-weight:bold;font-stretch:normal;line-height:21.6px;font-family:Helvetica;-inkscape-font-specification:'Helvetica Bold';fill:#000000;fill-opacity:1;stroke:none;stroke-width:0.4;stroke-dasharray:none;stroke-opacity:1"
       id="tspan11" /><tspan
       sodipodi:role="line"
       x="547.65997"
       y="494.18814"
       style="font-style:normal;font-variant:normal;font-weight:bold;font-stretch:normal;line-height:1;font-family:Helvetica;-inkscape-font-specification:'Helvetica Bold';fill:#000000;fill-opacity:1;stroke:none;stroke-width:0.4;stroke-dasharray:none;stroke-opacity:1"
       id="tspan10" /></text><g
     id="g7"
     transform="translate(-12.920931,-489.6454)"><rect
       x="71.800194"
       y="1219.9705"
       width="671.82349"
       height="296.2009"
       rx="18.249874"
       fill="#071525"
       id="rect35"
       style="stroke-width:1.03729" /><line
       x1="105.9966"
       y1="1427.0535"
       x2="711.25537"
       y2="1427.0535"
       stroke="#526174"
       stroke-width="1.09197"
       opacity="0.6"
       id="line43" /><g
       id="g68"
       inkscape:label="query"
       transform="matrix(1.036254,0,0,1.036254,-976.848,944.82345)"><text
         x="1036"
         y="326"
         font-family="Consolas, Menlo, monospace"
         font-size="20px"
         font-weight="700"
         letter-spacing="1"
         fill="#e5486a"
         id="text35">SELECT</text><text
         x="1122"
         y="326"
         font-family="Consolas, Menlo, monospace"
         font-size="20px"
         fill="#f7fafc"
         id="text36">id, name</text><text
         x="1036"
         y="365"
         font-family="Consolas, Menlo, monospace"
         font-size="20px"
         font-weight="700"
         letter-spacing="1"
         fill="#e5486a"
         id="text37">FROM</text><text
         x="1100"
         y="365"
         font-family="Consolas, Menlo, monospace"
         font-size="20px"
         fill="#f7fafc"
         id="text38">users</text><text
         x="1036"
         y="404"
         font-family="Consolas, Menlo, monospace"
         font-size="20px"
         font-weight="700"
         letter-spacing="1"
         fill="#e5486a"
         id="text39">WHERE</text><text
         x="1123"
         y="404"
         font-family="Consolas, Menlo, monospace"
         font-size="20px"
         fill="#f7fafc"
         id="text40">active = true</text><text
         x="1057"
         y="443"
         font-family="Consolas, Menlo, monospace"
         font-size="20px"
         font-weight="700"
         letter-spacing="1"
         fill="#e5486a"
         id="text41">AND</text><text
         x="1110"
         y="443"
         font-family="Consolas, Menlo, monospace"
         font-size="20px"
         fill="#f7fafc"
         id="text42">created_at &gt;= NOW() - INTERVAL </text><text
         x="1476.0746"
         y="443"
         font-family="Consolas, Menlo, monospace"
         font-size="20px"
         fill="#e5486a"
         id="text43">'30 days';</text></g><g
       id="g54"
       inkscape:label="checkmark-circle"
       transform="matrix(1.036254,0,0,1.036254,-892.7936,927.06339)"><circle
         cx="1430"
         cy="522"
         r="15"
         fill="#2fc58a"
         id="circle44" /><path
         d="m 1423,522 5,5 10,-11"
         fill="none"
         stroke="#07351f"
         stroke-width="3"
         stroke-linecap="round"
         stroke-linejoin="round"
         id="path44" /></g><text
       x="615.99219"
       y="1475.2417"
       font-family="Arial, Helvetica, sans-serif"
       font-size="20.7251px"
       font-weight="600"
       fill="#36c48d"
       id="text45"
       inkscape:label="validated"
       style="stroke-width:1.03625">validated</text><g
       id="g70"
       transform="matrix(1.036254,0,0,1.036254,-968.8891,928.90553)"><g
         id="g69"
         inkscape:label="lock"
         transform="matrix(1.3149692,0,0,1.2580633,-334.15359,-127.71322)"><rect
           x="1040"
           y="512"
           width="20"
           height="17"
           rx="3"
           fill="none"
           stroke="#8ea0b8"
           stroke-width="2"
           id="rect68" /><path
           d="m 1041,512 v -6 c 0,-6 4,-10 9,-10 5,0 9,4 9,10 v 6"
           fill="none"
           stroke="#8ea0b8"
           stroke-width="2"
           id="path68" /></g><text
         x="1074"
         y="514"
         font-family="Arial, Helvetica, sans-serif"
         font-size="20px"
         fill="#93a4b8"
         id="text69">read-only</text><text
         x="1073.9192"
         y="537.48657"
         font-family="Arial, Helvetica, sans-serif"
         font-size="20px"
         fill="#93a4b8"
         id="text70">scope-secured</text></g></g><metadata
     id="metadata70"><rdf:RDF><cc:Work
         rdf:about=""><dc:title>AskDB hero visual, plain Inkscape version</dc:title></cc:Work></rdf:RDF></metadata></svg>
